<svg width="531" height="318" viewBox="0 0 531 318" fill="none" xmlns="http://www.w3.org/2000/svg">
<path d="M236.484 307.192C234.692 307.192 233.22 306.728 232.068 305.8C230.932 304.872 230.364 303.64 230.364 302.104C230.364 301.144 230.644 300.288 231.204 299.536C231.764 298.784 232.508 298.256 233.436 297.952C232.716 297.632 232.14 297.16 231.708 296.536C231.276 295.896 231.06 295.208 231.06 294.472C231.06 293.176 231.556 292.112 232.548 291.28C233.556 290.432 234.868 290.008 236.484 290.008C238.068 290.008 239.348 290.432 240.324 291.28C241.316 292.112 241.812 293.176 241.812 294.472C241.812 295.208 241.596 295.896 241.164 296.536C240.732 297.16 240.156 297.632 239.436 297.952C240.38 298.256 241.132 298.784 241.692 299.536C242.252 300.288 242.532 301.144 242.532 302.104C242.532 303.64 241.964 304.872 240.828 305.8C239.692 306.728 238.244 307.192 236.484 307.192ZM236.484 296.92C237.284 296.92 237.932 296.704 238.428 296.272C238.924 295.84 239.18 295.272 239.196 294.568C239.196 293.864 238.948 293.304 238.452 292.888C237.956 292.456 237.3 292.24 236.484 292.24C235.636 292.24 234.956 292.456 234.444 292.888C233.932 293.304 233.684 293.864 233.7 294.568C233.7 295.272 233.956 295.84 234.468 296.272C234.98 296.704 235.652 296.92 236.484 296.92ZM236.46 304.84C237.452 304.84 238.244 304.592 238.836 304.096C239.444 303.584 239.748 302.912 239.748 302.08C239.748 301.232 239.444 300.56 238.836 300.064C238.244 299.552 237.452 299.296 236.46 299.296C235.452 299.296 234.644 299.552 234.036 300.064C233.428 300.56 233.124 301.232 233.124 302.08C233.124 302.912 233.428 303.584 234.036 304.096C234.644 304.592 235.452 304.84 236.46 304.84ZM244.934 311.368V294.904H247.55V296.44C247.902 295.928 248.414 295.512 249.086 295.192C249.758 294.872 250.502 294.712 251.318 294.712C253.078 294.712 254.462 295.288 255.47 296.44C256.494 297.592 257.006 299.096 257.006 300.952C257.006 302.808 256.478 304.312 255.422 305.464C254.382 306.616 252.966 307.192 251.174 307.192C250.438 307.192 249.742 307.048 249.086 306.76C248.43 306.472 247.918 306.088 247.55 305.608V311.368H244.934ZM248.342 303.832C248.982 304.552 249.83 304.912 250.886 304.912C251.942 304.912 252.79 304.552 253.43 303.832C254.07 303.096 254.39 302.136 254.39 300.952C254.39 299.752 254.07 298.792 253.43 298.072C252.79 297.352 251.942 296.992 250.886 296.992C249.83 296.992 248.982 297.352 248.342 298.072C247.702 298.792 247.382 299.752 247.382 300.952C247.382 302.136 247.702 303.096 248.342 303.832ZM268.819 307H265.915L263.251 302.992L260.563 307H257.659L261.811 300.832L257.851 294.904H260.707L263.251 298.672L265.771 294.904H268.627L264.667 300.832L268.819 307Z" fill="black"/>
<path d="M279.504 307V293.44C278.48 294.336 277.184 294.944 275.616 295.264V292.744C277.296 292.376 278.744 291.528 279.96 290.2H282.144V307H279.504ZM285.317 311.368V294.904H287.933V296.44C288.285 295.928 288.797 295.512 289.469 295.192C290.141 294.872 290.885 294.712 291.701 294.712C293.461 294.712 294.845 295.288 295.853 296.44C296.877 297.592 297.389 299.096 297.389 300.952C297.389 302.808 296.861 304.312 295.805 305.464C294.765 306.616 293.349 307.192 291.557 307.192C290.821 307.192 290.125 307.048 289.469 306.76C288.813 306.472 288.301 306.088 287.933 305.608V311.368H285.317ZM288.725 303.832C289.365 304.552 290.213 304.912 291.269 304.912C292.325 304.912 293.173 304.552 293.813 303.832C294.453 303.096 294.773 302.136 294.773 300.952C294.773 299.752 294.453 298.792 293.813 298.072C293.173 297.352 292.325 296.992 291.269 296.992C290.213 296.992 289.365 297.352 288.725 298.072C288.085 298.792 287.765 299.752 287.765 300.952C287.765 302.136 288.085 303.096 288.725 303.832ZM309.201 307H306.297L303.633 302.992L300.945 307H298.041L302.193 300.832L298.233 294.904H301.089L303.633 298.672L306.153 294.904H309.009L305.049 300.832L309.201 307Z" fill="#949292"/>
<path d="M43.252 44.0001H40.212L34.1 34.3681L27.988 44.0001H24.948L32.596 31.9361L26.036 21.6001H29.076L34.1 29.5361L39.124 21.6001H42.196L35.636 31.9681L43.252 44.0001Z" fill="black"/>
<path d="M43.252 253H40.212L34.1 243.368L27.988 253H24.948L32.596 240.936L26.036 230.6H29.076L34.1 238.536L39.124 230.6H42.196L35.636 240.968L43.252 253Z" fill="black"/>
<path d="M506.252 253H503.212L497.1 243.368L490.988 253H487.948L495.596 240.936L489.036 230.6H492.076L497.1 238.536L502.124 230.6H505.196L498.636 240.968L506.252 253Z" fill="black"/>
<path d="M506.252 46.0001H503.212L497.1 36.3681L490.988 46.0001H487.948L495.596 33.9361L489.036 23.6001H492.076L497.1 31.5361L502.124 23.6001H505.196L498.636 33.9681L506.252 46.0001Z" fill="black"/>
<rect x="0.5" y="3.8147e-06" width="530" height="67" fill="black" fill-opacity="0.1"/>
<rect x="0.5" y="209" width="530" height="67" fill="black" fill-opacity="0.1"/>
<rect x="0.5" y="276" width="276" height="67" transform="rotate(-90 0.5 276)" fill="black" fill-opacity="0.1"/>
<rect x="463.5" y="276" width="276" height="67" transform="rotate(-90 463.5 276)" fill="black" fill-opacity="0.1"/>
<rect x="0.5" y="276" width="67" height="67" transform="rotate(-90 0.5 276)" fill="#D90429"/>
<rect x="0.5" y="67" width="67" height="67" transform="rotate(-90 0.5 67)" fill="#D90429"/>
<rect x="463.5" y="67" width="67" height="67" transform="rotate(-90 463.5 67)" fill="#D90429"/>
<rect x="463.5" y="276" width="67" height="67" transform="rotate(-90 463.5 276)" fill="#D90429"/>
<path fill-rule="evenodd" clip-rule="evenodd" d="M398.826 137.779C398.826 173.556 338.982 202.558 265.163 202.558C191.345 202.558 131.5 173.556 131.5 137.779C131.5 102.002 191.34 73 265.163 73C338.986 73 398.826 102.002 398.826 137.779Z" fill="url(#paint0_linear_2539_2597)"/>
<path fill-rule="evenodd" clip-rule="evenodd" d="M265.161 76.0215C193.166 76.0215 134.799 103.661 134.799 137.754C134.799 171.846 193.162 199.49 265.161 199.49C337.16 199.49 395.523 171.851 395.523 137.754C395.523 103.656 337.16 76.0215 265.161 76.0215Z" fill="white"/>
<g opacity="0.75">
<path d="M366.551 171.144H163.775V173.636H366.551V171.144Z" fill="url(#paint1_linear_2539_2597)"/>
<path d="M366.551 164.224H163.775V166.717H366.551V164.224Z" fill="url(#paint2_linear_2539_2597)"/>
<path d="M366.551 157.301H163.775V159.794H366.551V157.301Z" fill="url(#paint3_linear_2539_2597)"/>
<path d="M366.551 150.377H163.775V152.87H366.551V150.377Z" fill="url(#paint4_linear_2539_2597)"/>
<path d="M366.551 143.454H163.775V145.946H366.551V143.454Z" fill="url(#paint5_linear_2539_2597)"/>
<path d="M366.551 136.535H163.775V139.027H366.551V136.535Z" fill="url(#paint6_linear_2539_2597)"/>
<path d="M366.551 129.611H163.775V132.104H366.551V129.611Z" fill="url(#paint7_linear_2539_2597)"/>
<path d="M366.551 122.687H163.775V125.18H366.551V122.687Z" fill="url(#paint8_linear_2539_2597)"/>
<path d="M366.551 108.84H163.775V111.333H366.551V108.84Z" fill="url(#paint9_linear_2539_2597)"/>
<path d="M366.551 101.917H163.775V104.41H366.551V101.917Z" fill="url(#paint10_linear_2539_2597)"/>
<path d="M366.551 115.764H163.775V118.257H366.551V115.764Z" fill="url(#paint11_linear_2539_2597)"/>
</g>
<path d="M226.959 166.95H187.369L197.704 108.608H211.039L203.036 154.03H229.291L226.959 166.95Z" fill="url(#paint12_linear_2539_2597)"/>
<path d="M245.088 164.491C241.169 162.295 238.13 159.227 235.959 155.282C233.792 151.338 232.709 146.865 232.709 141.863C232.709 135.417 234.207 129.598 237.212 124.402C240.212 119.205 244.157 115.138 249.049 112.192C253.937 109.247 259.104 107.774 264.55 107.774C269.997 107.774 274.453 108.913 278.093 111.189C281.732 113.47 284.428 116.331 286.176 119.776C287.928 123.221 288.855 126.721 288.969 130.28H275.719C275.494 128.782 274.898 127.292 273.929 125.819C272.955 124.347 271.554 123.124 269.718 122.15C267.885 121.177 265.718 120.69 263.217 120.69C260.327 120.69 257.563 121.524 254.923 123.191C252.282 124.859 250.145 127.22 248.503 130.276C246.865 133.331 246.044 136.831 246.044 140.779C246.044 145.058 247.305 148.477 249.836 151.029C252.362 153.585 255.629 154.863 259.629 154.863C263.184 154.863 266.197 153.835 268.672 151.778C271.144 149.722 272.824 147.415 273.717 144.859H287.551C286.383 148.473 284.496 152.028 281.885 155.528C279.274 159.028 275.951 161.948 271.923 164.28C267.894 166.611 263.408 167.779 258.461 167.779C253.513 167.779 249.002 166.683 245.083 164.487L245.088 164.491Z" fill="url(#paint13_linear_2539_2597)"/>
<path d="M302.848 165.325C299.153 163.687 296.389 161.368 294.553 158.367C292.72 155.367 291.887 151.837 292.052 147.783H305.302C305.302 150.449 306.275 152.506 308.218 153.949C310.16 155.397 312.996 156.116 316.72 156.116C319.83 156.116 322.192 155.49 323.804 154.241C325.417 152.993 326.221 151.423 326.221 149.531C326.221 148.143 325.607 147.004 324.388 146.112C323.165 145.223 321.278 144.474 318.722 143.86L310.22 141.858C306.051 140.86 302.869 139.095 300.676 136.564C298.48 134.038 297.384 130.995 297.384 127.436C297.384 123.877 298.302 120.449 300.135 117.474C301.967 114.503 304.621 112.141 308.095 110.389C311.565 108.637 315.666 107.766 320.389 107.766C327.888 107.766 333.627 109.518 337.601 113.017C341.574 116.517 343.335 121.435 342.895 127.77H329.56C329.725 125.049 328.878 122.979 327.016 121.562C325.154 120.144 322.67 119.437 319.555 119.437C316.441 119.437 314.333 120.034 312.886 121.227C311.438 122.421 310.719 124.021 310.719 126.018C310.719 127.131 311.176 128.13 312.094 129.019C313.013 129.907 314.498 130.576 316.555 131.02L324.388 132.853C329.501 134.076 333.305 135.925 335.806 138.397C338.307 140.868 339.556 143.996 339.556 147.775C339.556 151.554 338.599 155.206 336.682 158.236C334.765 161.266 332.044 163.611 328.514 165.278C324.985 166.946 320.888 167.779 316.221 167.779C310.998 167.779 306.538 166.958 302.843 165.321L302.848 165.325Z" fill="url(#paint14_linear_2539_2597)"/>
<path d="M38.948 250H35.996L31.868 243.376L27.74 250H24.764L30.38 240.976L25.532 233.2H28.508L31.868 238.6L35.228 233.2H38.18L33.356 240.976L38.948 250Z" fill="white"/>
<path d="M38.948 40H35.996L31.868 33.376L27.74 40H24.764L30.38 30.976L25.532 23.2H28.508L31.868 28.6L35.228 23.2H38.18L33.356 30.976L38.948 40Z" fill="white"/>
<path d="M504.948 40H501.996L497.868 33.376L493.74 40H490.764L496.38 30.976L491.532 23.2H494.508L497.868 28.6L501.228 23.2H504.18L499.356 30.976L504.948 40Z" fill="white"/>
<path d="M504.948 250H501.996L497.868 243.376L493.74 250H490.764L496.38 240.976L491.532 233.2H494.508L497.868 238.6L501.228 233.2H504.18L499.356 240.976L504.948 250Z" fill="white"/>
<defs>
<linearGradient id="paint0_linear_2539_2597" x1="122.202" y1="153.535" x2="387.92" y2="124.249" gradientUnits="userSpaceOnUse">
<stop stop-color="#CC0000"/>
<stop offset="1" stop-color="#951D00"/>
</linearGradient>
<linearGradient id="paint1_linear_2539_2597" x1="163.775" y1="172.392" x2="366.547" y2="172.392" gradientUnits="userSpaceOnUse">
<stop stop-color="#CC0000"/>
<stop offset="1" stop-color="#951D00"/>
</linearGradient>
<linearGradient id="paint2_linear_2539_2597" x1="163.775" y1="165.469" x2="366.547" y2="165.469" gradientUnits="userSpaceOnUse">
<stop stop-color="#CC0000"/>
<stop offset="1" stop-color="#951D00"/>
</linearGradient>
<linearGradient id="paint3_linear_2539_2597" x1="163.775" y1="158.545" x2="366.547" y2="158.545" gradientUnits="userSpaceOnUse">
<stop stop-color="#CC0000"/>
<stop offset="1" stop-color="#951D00"/>
</linearGradient>
<linearGradient id="paint4_linear_2539_2597" x1="163.775" y1="151.626" x2="366.547" y2="151.626" gradientUnits="userSpaceOnUse">
<stop stop-color="#CC0000"/>
<stop offset="1" stop-color="#951D00"/>
</linearGradient>
<linearGradient id="paint5_linear_2539_2597" x1="163.775" y1="144.702" x2="366.547" y2="144.702" gradientUnits="userSpaceOnUse">
<stop stop-color="#CC0000"/>
<stop offset="1" stop-color="#951D00"/>
</linearGradient>
<linearGradient id="paint6_linear_2539_2597" x1="163.775" y1="137.779" x2="366.547" y2="137.779" gradientUnits="userSpaceOnUse">
<stop stop-color="#CC0000"/>
<stop offset="1" stop-color="#951D00"/>
</linearGradient>
<linearGradient id="paint7_linear_2539_2597" x1="163.775" y1="130.855" x2="366.547" y2="130.855" gradientUnits="userSpaceOnUse">
<stop stop-color="#CC0000"/>
<stop offset="1" stop-color="#951D00"/>
</linearGradient>
<linearGradient id="paint8_linear_2539_2597" x1="163.775" y1="123.932" x2="366.547" y2="123.932" gradientUnits="userSpaceOnUse">
<stop stop-color="#CC0000"/>
<stop offset="1" stop-color="#951D00"/>
</linearGradient>
<linearGradient id="paint9_linear_2539_2597" x1="163.775" y1="110.089" x2="366.547" y2="110.089" gradientUnits="userSpaceOnUse">
<stop stop-color="#CC0000"/>
<stop offset="1" stop-color="#951D00"/>
</linearGradient>
<linearGradient id="paint10_linear_2539_2597" x1="163.775" y1="103.165" x2="366.547" y2="103.165" gradientUnits="userSpaceOnUse">
<stop stop-color="#CC0000"/>
<stop offset="1" stop-color="#951D00"/>
</linearGradient>
<linearGradient id="paint11_linear_2539_2597" x1="163.775" y1="117.013" x2="366.547" y2="117.013" gradientUnits="userSpaceOnUse">
<stop stop-color="#CC0000"/>
<stop offset="1" stop-color="#951D00"/>
</linearGradient>
<linearGradient id="paint12_linear_2539_2597" x1="210.912" y1="134" x2="206.849" y2="175.727" gradientUnits="userSpaceOnUse">
<stop stop-color="#CC0000"/>
<stop offset="1" stop-color="#951D00"/>
</linearGradient>
<linearGradient id="paint13_linear_2539_2597" x1="254.182" y1="125.481" x2="282.139" y2="174.305" gradientUnits="userSpaceOnUse">
<stop stop-color="#CC0000"/>
<stop offset="1" stop-color="#951D00"/>
</linearGradient>
<linearGradient id="paint14_linear_2539_2597" x1="315.687" y1="124.338" x2="322.717" y2="174.779" gradientUnits="userSpaceOnUse">
<stop stop-color="#CC0000"/>
<stop offset="1" stop-color="#951D00"/>
</linearGradient>
</defs>
</svg>
