<svg width="20" height="20" viewBox="0 0 20 20" fill="none" xmlns="http://www.w3.org/2000/svg">
<path d="M0.25 3.51639C0.25 1.72146 1.70507 0.266388 3.5 0.266388H16.5C18.2949 0.266388 19.75 1.72146 19.75 3.51639V16.5164C19.75 18.3113 18.2949 19.7664 16.5 19.7664H3.5C1.70507 19.7664 0.25 18.3113 0.25 16.5164V3.51639Z" fill="#D41436"/>
<path d="M3.93323 10.7019C3.93323 10.0438 4.46675 9.51027 5.12489 9.51027C5.78303 9.51027 6.31656 10.0438 6.31656 10.7019V14.638C6.31656 15.2962 5.78303 15.8297 5.12489 15.8297C4.46675 15.8297 3.93323 15.2962 3.93323 14.638V10.7019Z" fill="white"/>
<path d="M8.80823 12.5078C8.80823 11.8497 9.34175 11.3162 9.99989 11.3162C10.658 11.3162 11.1916 11.8497 11.1916 12.5078V14.6384C11.1916 15.2965 10.658 15.8301 9.99989 15.8301C9.34175 15.8301 8.80823 15.2965 8.80823 14.6384V12.5078Z" fill="white"/>
<path d="M13.6832 6.00784C13.6832 5.34971 14.2168 4.81618 14.8749 4.81618C15.533 4.81618 16.0666 5.3497 16.0666 6.00784V14.6384C16.0666 15.2965 15.533 15.8301 14.8749 15.8301C14.2168 15.8301 13.6832 15.2965 13.6832 14.6384V6.00784Z" fill="#FFEFCF"/>
</svg>
