<svg width="22" height="22" viewBox="0 0 22 22" fill="none" xmlns="http://www.w3.org/2000/svg">
<path d="M2.93057 6.50526C2.93057 4.54005 4.52369 2.94693 6.4889 2.94693H15.9778C17.943 2.94693 19.5361 4.54005 19.5361 6.50526V15.9941C19.5361 17.9594 17.943 19.5525 15.9778 19.5525H6.4889C4.52369 19.5525 2.93057 17.9594 2.93057 15.9941V6.50526Z" fill="#D41436"/>
<path d="M8.26807 9.47054C8.26807 8.81547 8.79911 8.28443 9.45418 8.28443H13.0125C13.6676 8.28443 14.1986 8.81547 14.1986 9.47054V13.0289C14.1986 13.6839 13.6676 14.215 13.0125 14.215H9.45418C8.79911 14.215 8.26807 13.6839 8.26807 13.0289V9.47054Z" fill="white"/>
<path fill-rule="evenodd" clip-rule="evenodd" d="M8.86113 0.574707C9.5162 0.574707 10.0472 1.10575 10.0472 1.76082V4.13304C10.0472 4.78811 9.5162 5.31915 8.86113 5.31915C8.20605 5.31915 7.67501 4.78811 7.67501 4.13304V1.76082C7.67501 1.10575 8.20605 0.574707 8.86113 0.574707Z" fill="#FFEFCF"/>
<path fill-rule="evenodd" clip-rule="evenodd" d="M8.86113 17.1803C9.5162 17.1803 10.0472 17.7113 10.0472 18.3664V20.7386C10.0472 21.3937 9.5162 21.9247 8.86113 21.9247C8.20605 21.9247 7.67501 21.3937 7.67501 20.7386V18.3664C7.67501 17.7113 8.20605 17.1803 8.86113 17.1803Z" fill="#FFEFCF"/>
<path fill-rule="evenodd" clip-rule="evenodd" d="M0.55835 13.6219C0.55835 12.9669 1.08939 12.4358 1.74446 12.4358H4.11668C4.77175 12.4358 5.30279 12.9669 5.30279 13.6219C5.30279 14.277 4.77175 14.808 4.11668 14.808H1.74446C1.08939 14.808 0.55835 14.277 0.55835 13.6219Z" fill="#FFEFCF"/>
<path fill-rule="evenodd" clip-rule="evenodd" d="M17.1639 13.6219C17.1639 12.9669 17.6949 12.4358 18.35 12.4358H20.7222C21.3773 12.4358 21.9083 12.9669 21.9083 13.6219C21.9083 14.277 21.3773 14.808 20.7222 14.808H18.35C17.6949 14.808 17.1639 14.277 17.1639 13.6219Z" fill="#FFEFCF"/>
<path fill-rule="evenodd" clip-rule="evenodd" d="M13.6056 0.574707C14.2606 0.574707 14.7917 1.10575 14.7917 1.76082V4.13304C14.7917 4.78811 14.2606 5.31915 13.6056 5.31915C12.9505 5.31915 12.4195 4.78811 12.4195 4.13304V1.76082C12.4195 1.10575 12.9505 0.574707 13.6056 0.574707Z" fill="#FFEFCF"/>
<path fill-rule="evenodd" clip-rule="evenodd" d="M13.6056 17.1803C14.2606 17.1803 14.7917 17.7113 14.7917 18.3664V20.7386C14.7917 21.3937 14.2606 21.9247 13.6056 21.9247C12.9505 21.9247 12.4195 21.3937 12.4195 20.7386V18.3664C12.4195 17.7113 12.9505 17.1803 13.6056 17.1803Z" fill="#FFEFCF"/>
<path fill-rule="evenodd" clip-rule="evenodd" d="M0.55835 8.87748C0.55835 8.22241 1.08939 7.69137 1.74446 7.69137H4.11668C4.77175 7.69137 5.30279 8.22241 5.30279 8.87748C5.30279 9.53255 4.77175 10.0636 4.11668 10.0636H1.74446C1.08939 10.0636 0.55835 9.53255 0.55835 8.87748Z" fill="#FFEFCF"/>
<path fill-rule="evenodd" clip-rule="evenodd" d="M17.1639 8.87748C17.1639 8.22241 17.6949 7.69137 18.35 7.69137H20.7222C21.3773 7.69137 21.9083 8.22241 21.9083 8.87748C21.9083 9.53255 21.3773 10.0636 20.7222 10.0636H18.35C17.6949 10.0636 17.1639 9.53255 17.1639 8.87748Z" fill="#FFEFCF"/>
</svg>
